# xmcd
#
# Track frame offsets:
#	150
#	17952
#	34870
#	51015
#	64402
#	82962
#	100677
#	122502
#	135029
#	156029
#	169804
#	188754
#	201567
#	218669
#	235257
#	246857
#	263858
#	280547
#	297759
#
# Disc length: 4398 seconds
#
# Revision: 1
# Processed by: cddbd v1.5.1PL0 Copyright (c) Steve Scherf et al.
# Submitted via: audiograbber 1.83.01
#
DISCID=06112c13
DTITLE=Carpenters - Carpenters - Their Greatest Hits
DYEAR=1900
DGENRE=
TTITLE0=Yesterday Once More
TTITLE1=Superstar (Remix)
TTITLE2=Rainy Days And Mondays
TTITLE3=Top Of The World
TTITLE4=Ticket To Ride
TTITLE5=Goodbye To Love
TTITLE6=This Masquerade
TTITLE7=Hurting Each Other
TTITLE8=Solitaire
TTITLE9=We've Only Just Begun
TTITLE10=Those Good Old Dreams
TTITLE11=Please Mr. Postman
TTITLE12=I Won't Last A Day Without You
TTITLE13=Touch Me When We're Dancing
TTITLE14=For All We Know
TTITLE15=All You Get From Love Is A Love Song
TTITLE16=Close To You
TTITLE17=Only Yesterday
TTITLE18=Calling Occupants Of Interplanetary Craft
EXTD=
EXTT0=
EXTT1=
EXTT2=
EXTT3=
EXTT4=
EXTT5=
EXTT6=
EXTT7=
EXTT8=
EXTT9=
EXTT10=
EXTT11=
EXTT12=
EXTT13=
EXTT14=
EXTT15=
EXTT16=
EXTT17=
EXTT18=
PLAYORDER=
